<mxfile host="app.diagrams.net" modified="2020-03-19T17:25:16.375Z" agent="Mozilla/5.0 (Windows NT 10.0; Win64; x64) AppleWebKit/537.36 (KHTML, like Gecko) Chrome/80.0.3987.132 Safari/537.36" etag="GLkfAK5JgKOsyXFeYS4k" version="12.8.8" type="github">
  <diagram id="v1kaSg5XMLnamlTehL7t" name="Page-1">
    <mxGraphModel dx="782" dy="507" grid="1" gridSize="10" guides="1" tooltips="1" connect="1" arrows="1" fold="1" page="1" pageScale="1" pageWidth="850" pageHeight="1100" math="0" shadow="0">
      <root>
        <mxCell id="0" />
        <mxCell id="1" parent="0" />
        <mxCell id="SxOozk5HX5RI8pWN9_sA-17" style="edgeStyle=orthogonalEdgeStyle;rounded=0;orthogonalLoop=1;jettySize=auto;html=1;exitX=1;exitY=0.5;exitDx=0;exitDy=0;entryX=0;entryY=0.5;entryDx=0;entryDy=0;" edge="1" parent="1" source="SxOozk5HX5RI8pWN9_sA-1" target="SxOozk5HX5RI8pWN9_sA-4">
          <mxGeometry relative="1" as="geometry" />
        </mxCell>
        <mxCell id="SxOozk5HX5RI8pWN9_sA-1" value="Zipkin Event" style="shape=mxgraph.bpmn.shape;html=1;verticalLabelPosition=bottom;labelBackgroundColor=#ffffff;verticalAlign=top;align=center;perimeter=ellipsePerimeter;outlineConnect=0;outline=standard;symbol=general;" vertex="1" parent="1">
          <mxGeometry x="50" y="120" width="50" height="50" as="geometry" />
        </mxCell>
        <mxCell id="SxOozk5HX5RI8pWN9_sA-21" style="edgeStyle=orthogonalEdgeStyle;rounded=0;orthogonalLoop=1;jettySize=auto;html=1;exitX=0.5;exitY=1;exitDx=0;exitDy=0;entryX=0.5;entryY=0;entryDx=0;entryDy=0;" edge="1" parent="1" source="SxOozk5HX5RI8pWN9_sA-3" target="SxOozk5HX5RI8pWN9_sA-8">
          <mxGeometry relative="1" as="geometry" />
        </mxCell>
        <mxCell id="SxOozk5HX5RI8pWN9_sA-46" style="edgeStyle=orthogonalEdgeStyle;rounded=0;orthogonalLoop=1;jettySize=auto;html=1;exitX=1;exitY=0.5;exitDx=0;exitDy=0;dashed=1;entryX=0;entryY=0.5;entryDx=0;entryDy=0;" edge="1" parent="1" source="SxOozk5HX5RI8pWN9_sA-3" target="SxOozk5HX5RI8pWN9_sA-47">
          <mxGeometry relative="1" as="geometry">
            <mxPoint x="340" y="145.5" as="targetPoint" />
          </mxGeometry>
        </mxCell>
        <mxCell id="SxOozk5HX5RI8pWN9_sA-3" value="" style="shape=mxgraph.bpmn.shape;html=1;verticalLabelPosition=bottom;labelBackgroundColor=#ffffff;verticalAlign=top;align=center;perimeter=rhombusPerimeter;background=gateway;outlineConnect=0;outline=none;symbol=parallelGw;" vertex="1" parent="1">
          <mxGeometry x="255" y="120" width="50" height="50" as="geometry" />
        </mxCell>
        <mxCell id="SxOozk5HX5RI8pWN9_sA-19" style="edgeStyle=orthogonalEdgeStyle;rounded=0;orthogonalLoop=1;jettySize=auto;html=1;exitX=1;exitY=0.5;exitDx=0;exitDy=0;entryX=0;entryY=0.5;entryDx=0;entryDy=0;" edge="1" parent="1" source="SxOozk5HX5RI8pWN9_sA-4" target="SxOozk5HX5RI8pWN9_sA-3">
          <mxGeometry relative="1" as="geometry" />
        </mxCell>
        <mxCell id="SxOozk5HX5RI8pWN9_sA-4" value="Clean Data" style="shape=ext;rounded=1;html=1;whiteSpace=wrap;" vertex="1" parent="1">
          <mxGeometry x="130" y="117.5" width="100" height="55" as="geometry" />
        </mxCell>
        <mxCell id="SxOozk5HX5RI8pWN9_sA-8" value="Zipkin" style="shape=datastore;whiteSpace=wrap;html=1;" vertex="1" parent="1">
          <mxGeometry x="250" y="210" width="60" height="60" as="geometry" />
        </mxCell>
        <mxCell id="SxOozk5HX5RI8pWN9_sA-34" style="edgeStyle=orthogonalEdgeStyle;rounded=0;orthogonalLoop=1;jettySize=auto;html=1;entryX=0;entryY=0.75;entryDx=0;entryDy=0;dashed=1;" edge="1" parent="1" source="SxOozk5HX5RI8pWN9_sA-11" target="SxOozk5HX5RI8pWN9_sA-16">
          <mxGeometry relative="1" as="geometry" />
        </mxCell>
        <mxCell id="SxOozk5HX5RI8pWN9_sA-11" value="Event&amp;nbsp;&lt;br&gt;History" style="shape=datastore;whiteSpace=wrap;html=1;" vertex="1" parent="1">
          <mxGeometry x="481" y="268" width="59" height="60" as="geometry" />
        </mxCell>
        <mxCell id="SxOozk5HX5RI8pWN9_sA-27" style="edgeStyle=orthogonalEdgeStyle;rounded=0;orthogonalLoop=1;jettySize=auto;html=1;exitX=1;exitY=0.5;exitDx=0;exitDy=0;entryX=0;entryY=0.5;entryDx=0;entryDy=0;" edge="1" parent="1" source="SxOozk5HX5RI8pWN9_sA-12" target="SxOozk5HX5RI8pWN9_sA-15">
          <mxGeometry relative="1" as="geometry" />
        </mxCell>
        <mxCell id="SxOozk5HX5RI8pWN9_sA-28" style="edgeStyle=orthogonalEdgeStyle;rounded=0;orthogonalLoop=1;jettySize=auto;html=1;exitX=0.855;exitY=0.855;exitDx=0;exitDy=0;exitPerimeter=0;entryX=0;entryY=0.5;entryDx=0;entryDy=0;" edge="1" parent="1" source="SxOozk5HX5RI8pWN9_sA-12" target="SxOozk5HX5RI8pWN9_sA-16">
          <mxGeometry relative="1" as="geometry" />
        </mxCell>
        <mxCell id="SxOozk5HX5RI8pWN9_sA-12" value="Publish" style="shape=mxgraph.bpmn.shape;html=1;verticalLabelPosition=bottom;labelBackgroundColor=#ffffff;verticalAlign=top;align=center;perimeter=ellipsePerimeter;outlineConnect=0;outline=standard;symbol=message;" vertex="1" parent="1">
          <mxGeometry x="570" y="120" width="50" height="50" as="geometry" />
        </mxCell>
        <mxCell id="SxOozk5HX5RI8pWN9_sA-25" style="edgeStyle=orthogonalEdgeStyle;rounded=0;orthogonalLoop=1;jettySize=auto;html=1;exitX=0.5;exitY=1;exitDx=0;exitDy=0;entryX=0.5;entryY=0;entryDx=0;entryDy=0;" edge="1" parent="1" source="SxOozk5HX5RI8pWN9_sA-13" target="SxOozk5HX5RI8pWN9_sA-11">
          <mxGeometry relative="1" as="geometry" />
        </mxCell>
        <mxCell id="SxOozk5HX5RI8pWN9_sA-26" style="edgeStyle=orthogonalEdgeStyle;rounded=0;orthogonalLoop=1;jettySize=auto;html=1;exitX=1;exitY=0.5;exitDx=0;exitDy=0;entryX=0;entryY=0.5;entryDx=0;entryDy=0;" edge="1" parent="1" source="SxOozk5HX5RI8pWN9_sA-13" target="SxOozk5HX5RI8pWN9_sA-12">
          <mxGeometry relative="1" as="geometry" />
        </mxCell>
        <mxCell id="SxOozk5HX5RI8pWN9_sA-13" value="" style="shape=mxgraph.bpmn.shape;html=1;verticalLabelPosition=bottom;labelBackgroundColor=#ffffff;verticalAlign=top;align=center;perimeter=rhombusPerimeter;background=gateway;outlineConnect=0;outline=none;symbol=parallelGw;" vertex="1" parent="1">
          <mxGeometry x="486" y="120" width="50" height="50" as="geometry" />
        </mxCell>
        <mxCell id="SxOozk5HX5RI8pWN9_sA-38" style="edgeStyle=orthogonalEdgeStyle;rounded=0;orthogonalLoop=1;jettySize=auto;html=1;exitX=1;exitY=0.5;exitDx=0;exitDy=0;entryX=0;entryY=0.5;entryDx=0;entryDy=0;dashed=1;" edge="1" parent="1" source="SxOozk5HX5RI8pWN9_sA-15" target="SxOozk5HX5RI8pWN9_sA-37">
          <mxGeometry relative="1" as="geometry" />
        </mxCell>
        <mxCell id="SxOozk5HX5RI8pWN9_sA-15" value="Anomaly &lt;br&gt;Analysis" style="shape=ext;rounded=1;html=1;whiteSpace=wrap;strokeWidth=3;" vertex="1" parent="1">
          <mxGeometry x="670" y="30" width="100" height="50" as="geometry" />
        </mxCell>
        <mxCell id="SxOozk5HX5RI8pWN9_sA-35" style="edgeStyle=orthogonalEdgeStyle;rounded=0;orthogonalLoop=1;jettySize=auto;html=1;exitX=0.5;exitY=0;exitDx=0;exitDy=0;entryX=0.5;entryY=1;entryDx=0;entryDy=0;dashed=1;" edge="1" parent="1" source="SxOozk5HX5RI8pWN9_sA-16" target="SxOozk5HX5RI8pWN9_sA-29">
          <mxGeometry relative="1" as="geometry" />
        </mxCell>
        <mxCell id="SxOozk5HX5RI8pWN9_sA-16" value="Modelling" style="shape=ext;rounded=1;html=1;whiteSpace=wrap;strokeWidth=3;" vertex="1" parent="1">
          <mxGeometry x="670" y="260" width="100" height="50" as="geometry" />
        </mxCell>
        <mxCell id="SxOozk5HX5RI8pWN9_sA-36" style="edgeStyle=orthogonalEdgeStyle;rounded=0;orthogonalLoop=1;jettySize=auto;html=1;entryX=0.5;entryY=1;entryDx=0;entryDy=0;dashed=1;" edge="1" parent="1" source="SxOozk5HX5RI8pWN9_sA-29" target="SxOozk5HX5RI8pWN9_sA-15">
          <mxGeometry relative="1" as="geometry" />
        </mxCell>
        <mxCell id="SxOozk5HX5RI8pWN9_sA-29" value="Model&amp;nbsp;&lt;br&gt;Repository" style="shape=datastore;whiteSpace=wrap;html=1;" vertex="1" parent="1">
          <mxGeometry x="690" y="130" width="60" height="60" as="geometry" />
        </mxCell>
        <mxCell id="SxOozk5HX5RI8pWN9_sA-40" style="edgeStyle=orthogonalEdgeStyle;rounded=0;orthogonalLoop=1;jettySize=auto;html=1;exitX=1;exitY=0.5;exitDx=0;exitDy=0;entryX=0;entryY=0.5;entryDx=0;entryDy=0;dashed=1;" edge="1" parent="1" source="SxOozk5HX5RI8pWN9_sA-37" target="SxOozk5HX5RI8pWN9_sA-39">
          <mxGeometry relative="1" as="geometry" />
        </mxCell>
        <mxCell id="SxOozk5HX5RI8pWN9_sA-37" value="Health Analysis" style="shape=ext;rounded=1;html=1;whiteSpace=wrap;" vertex="1" parent="1">
          <mxGeometry x="810" y="30" width="100" height="50" as="geometry" />
        </mxCell>
        <mxCell id="SxOozk5HX5RI8pWN9_sA-54" style="edgeStyle=orthogonalEdgeStyle;rounded=0;orthogonalLoop=1;jettySize=auto;html=1;exitX=0.5;exitY=1;exitDx=0;exitDy=0;entryX=0.5;entryY=0;entryDx=0;entryDy=0;dashed=1;" edge="1" parent="1" source="SxOozk5HX5RI8pWN9_sA-39" target="SxOozk5HX5RI8pWN9_sA-53">
          <mxGeometry relative="1" as="geometry" />
        </mxCell>
        <mxCell id="SxOozk5HX5RI8pWN9_sA-56" value="" style="edgeStyle=orthogonalEdgeStyle;rounded=0;orthogonalLoop=1;jettySize=auto;html=1;dashed=1;" edge="1" parent="1" source="SxOozk5HX5RI8pWN9_sA-39" target="SxOozk5HX5RI8pWN9_sA-55">
          <mxGeometry relative="1" as="geometry" />
        </mxCell>
        <mxCell id="SxOozk5HX5RI8pWN9_sA-39" value="" style="shape=mxgraph.bpmn.shape;html=1;verticalLabelPosition=bottom;labelBackgroundColor=#ffffff;verticalAlign=top;align=center;perimeter=rhombusPerimeter;background=gateway;outlineConnect=0;outline=none;symbol=parallelGw;" vertex="1" parent="1">
          <mxGeometry x="950" y="30" width="50" height="50" as="geometry" />
        </mxCell>
        <mxCell id="SxOozk5HX5RI8pWN9_sA-49" style="edgeStyle=orthogonalEdgeStyle;rounded=0;orthogonalLoop=1;jettySize=auto;html=1;exitX=1;exitY=0.5;exitDx=0;exitDy=0;entryX=0;entryY=0.5;entryDx=0;entryDy=0;dashed=1;" edge="1" parent="1" source="SxOozk5HX5RI8pWN9_sA-47" target="SxOozk5HX5RI8pWN9_sA-13">
          <mxGeometry relative="1" as="geometry" />
        </mxCell>
        <mxCell id="SxOozk5HX5RI8pWN9_sA-47" value="Summarize&lt;br&gt;Data" style="html=1;whiteSpace=wrap;rounded=1;dropTarget=0;" vertex="1" parent="1">
          <mxGeometry x="350" y="117.5" width="99" height="55" as="geometry" />
        </mxCell>
        <mxCell id="SxOozk5HX5RI8pWN9_sA-48" value="" style="shape=mxgraph.bpmn.timer_start;perimeter=ellipsePerimeter;html=1;verticalLabelPosition=bottom;labelBackgroundColor=#ffffff;verticalAlign=top;outlineConnect=0;" vertex="1" parent="SxOozk5HX5RI8pWN9_sA-47">
          <mxGeometry x="1" y="1" width="30" height="30" relative="1" as="geometry">
            <mxPoint x="-40" y="-15" as="offset" />
          </mxGeometry>
        </mxCell>
        <mxCell id="SxOozk5HX5RI8pWN9_sA-52" style="edgeStyle=orthogonalEdgeStyle;rounded=0;orthogonalLoop=1;jettySize=auto;html=1;exitX=0.5;exitY=0;exitDx=0;exitDy=0;entryX=0.68;entryY=1.053;entryDx=0;entryDy=0;entryPerimeter=0;dashed=1;" edge="1" parent="1" source="SxOozk5HX5RI8pWN9_sA-51" target="SxOozk5HX5RI8pWN9_sA-15">
          <mxGeometry relative="1" as="geometry" />
        </mxCell>
        <mxCell id="SxOozk5HX5RI8pWN9_sA-51" value="Profile&lt;br&gt;Repository" style="shape=datastore;whiteSpace=wrap;html=1;" vertex="1" parent="1">
          <mxGeometry x="790" y="130" width="60" height="60" as="geometry" />
        </mxCell>
        <mxCell id="SxOozk5HX5RI8pWN9_sA-58" style="edgeStyle=orthogonalEdgeStyle;rounded=0;orthogonalLoop=1;jettySize=auto;html=1;entryX=0.5;entryY=0;entryDx=0;entryDy=0;dashed=1;" edge="1" parent="1" source="SxOozk5HX5RI8pWN9_sA-53" target="SxOozk5HX5RI8pWN9_sA-57">
          <mxGeometry relative="1" as="geometry" />
        </mxCell>
        <mxCell id="SxOozk5HX5RI8pWN9_sA-53" value="History" style="shape=datastore;whiteSpace=wrap;html=1;" vertex="1" parent="1">
          <mxGeometry x="945" y="130" width="60" height="60" as="geometry" />
        </mxCell>
        <mxCell id="SxOozk5HX5RI8pWN9_sA-55" value="Alert(s)" style="shape=mxgraph.bpmn.shape;html=1;verticalLabelPosition=bottom;labelBackgroundColor=#ffffff;verticalAlign=top;align=center;perimeter=ellipsePerimeter;outlineConnect=0;outline=eventNonint;symbol=escalation;" vertex="1" parent="1">
          <mxGeometry x="1050" y="30" width="50" height="50" as="geometry" />
        </mxCell>
        <mxCell id="SxOozk5HX5RI8pWN9_sA-57" value="Dashboard" style="shape=ext;rounded=1;html=1;whiteSpace=wrap;strokeWidth=3;" vertex="1" parent="1">
          <mxGeometry x="925" y="260" width="100" height="50" as="geometry" />
        </mxCell>
      </root>
    </mxGraphModel>
  </diagram>
</mxfile>
